<?xml version="1.0" encoding="utf-8"?>
<!-- Generator: Adobe Illustrator 21.0.0, SVG Export Plug-In . SVG Version: 6.00 Build 0)  -->
<svg version="1.1" xmlns="http://www.w3.org/2000/svg" xmlns:xlink="http://www.w3.org/1999/xlink" x="0px" y="0px"
	 viewBox="0 0 100 100" style="enable-background:new 0 0 100 100;" xml:space="preserve">
<style type="text/css">
	.st0{fill:#80C7EE;}
	.st1{fill:#047CC0;}
	.st2{fill:#F1F1F2;stroke:url(#SVGID_1_);stroke-width:18;stroke-miterlimit:10;}
	.st3{fill:#F1F1F2;stroke:url(#SVGID_2_);stroke-width:18;stroke-miterlimit:10;}
	.st4{fill:#F1F1F2;stroke:url(#SVGID_3_);stroke-width:18;stroke-miterlimit:10;}
	.st5{fill:#F1F1F2;stroke:url(#SVGID_4_);stroke-width:18;stroke-miterlimit:10;}
	.st6{fill:#F1F1F2;stroke:url(#SVGID_5_);stroke-width:18;stroke-miterlimit:10;}
	.st7{fill:#F1F1F2;stroke:url(#SVGID_6_);stroke-width:18;stroke-miterlimit:10;}
	.st8{fill:#F1F1F2;stroke:url(#SVGID_7_);stroke-width:18;stroke-miterlimit:10;}
	.st9{fill:#F1F1F2;stroke:url(#SVGID_8_);stroke-width:18;stroke-miterlimit:10;}
	.st10{fill:#F1F1F2;stroke:url(#SVGID_9_);stroke-width:18;stroke-miterlimit:10;}
	.st11{fill:#BB86BB;}
	.st12{fill:#F1F1F2;stroke:#782B8B;stroke-width:18;stroke-miterlimit:10;}
	.st13{fill:#782B8B;}
	.st14{fill:#F05B62;}
	.st15{fill:#A91E23;}
	.st16{fill:#F1F1F2;stroke:#A91E23;stroke-width:18;stroke-linecap:round;stroke-linejoin:round;stroke-miterlimit:10;}
	.st17{fill:none;stroke:#A91E23;stroke-width:18.7984;stroke-linecap:round;stroke-miterlimit:10;}
	.st18{fill:#A4D183;}
	.st19{fill:#5C9A43;}
	.st20{fill:#F1F1F2;}
	.st21{fill:#F1F1F2;stroke:url(#SVGID_10_);stroke-width:18;stroke-miterlimit:10;}
	.st22{fill:none;stroke:#231F20;stroke-width:9.2291;stroke-miterlimit:10;}
	.st23{fill:url(#SVGID_11_);}
	.st24{fill:url(#SVGID_12_);}
	.st25{fill:none;}
	.st26{fill:#F1F1F2;stroke:url(#SVGID_13_);stroke-width:18;stroke-miterlimit:10;}
	.st27{fill:url(#SVGID_14_);}
	.st28{display:none;}
	.st29{display:inline;}
	.st30{fill:#FAAF66;}
	.st31{fill:#EB6124;}
	.st32{fill:#F1F1F2;stroke:#EB6124;stroke-width:18.7984;stroke-miterlimit:10;}
	.st33{fill:none;stroke:#EB6124;stroke-width:18.7984;stroke-miterlimit:10;}
	.st34{fill:none;stroke:#EB6124;stroke-width:18.7984;stroke-miterlimit:10;stroke-dasharray:82.7773,27.5924;}
	.st35{fill:none;stroke:#EB6124;stroke-width:18.7984;stroke-miterlimit:10;stroke-dasharray:68.2487,22.7496;}
	.st36{fill:#F1F1F2;stroke:#EB6124;stroke-width:18;stroke-miterlimit:10;}
	.st37{fill:none;stroke:#EB6124;stroke-width:18;stroke-miterlimit:10;}
	.st38{fill:none;stroke:#EB6124;stroke-width:18;stroke-miterlimit:10;stroke-dasharray:82.7773,27.5924;}
	.st39{fill:none;stroke:#EB6124;stroke-width:18;stroke-miterlimit:10;stroke-dasharray:68.2487,22.7496;}
	.st40{fill:#F1F1F2;stroke:url(#SVGID_15_);stroke-width:18;stroke-miterlimit:10;}
	.st41{fill:url(#SVGID_16_);}
	.st42{fill:url(#SVGID_17_);}
	.st43{fill:#F1F1F2;stroke:url(#SVGID_18_);stroke-width:18;stroke-miterlimit:10;}
	.st44{fill:url(#SVGID_19_);}
	.st45{fill:#F1F1F2;stroke:#A91E23;stroke-width:14.0021;stroke-linecap:round;stroke-linejoin:round;stroke-miterlimit:10;}
	.st46{fill:none;stroke:#A91E23;stroke-width:18;stroke-linecap:round;stroke-miterlimit:10;}
	.st47{fill:#F1F1F2;stroke:url(#SVGID_20_);stroke-width:18;stroke-miterlimit:10;}
	.st48{fill:#F1F1F2;stroke:#5C9A43;stroke-width:18;stroke-linecap:round;stroke-linejoin:round;stroke-miterlimit:10;}
	.st49{fill:#F1F1F2;stroke:url(#SVGID_21_);stroke-width:18;stroke-miterlimit:10;}
	.st50{fill:url(#SVGID_22_);}
	.st51{fill:url(#SVGID_23_);}
	.st52{fill:#F1F1F2;stroke:url(#SVGID_24_);stroke-width:18;stroke-miterlimit:10;}
	.st53{fill:url(#SVGID_25_);}
	.st54{fill:#F1F1F2;stroke:url(#SVGID_26_);stroke-width:18;stroke-miterlimit:10;}
	.st55{fill:#EDFF00;}
</style>
<symbol  id="Beadledom_1_" viewBox="0 -1000 890 1000">
	<path class="st0" d="M445-981c-12,0-23.8,3.2-34.1,9.1L53.2-765.5C32.1-753.3,19-730.7,19-706.4v412.8c0,24.3,13.1,46.9,34.1,59.1
		L410.9-28.2c10.4,6,22.2,9.1,34.1,9.1c12,0,23.8-3.2,34.1-9.1l357.7-206.4c21.1-12.1,34.1-34.8,34.1-59.1v-412.8
		c0-24.3-13.1-46.9-34.1-59.1L479.1-971.8C468.8-977.8,457-981,445-981z"/>
	<path class="st1" d="M445-38c8.5,0,17-2.2,24.6-6.6L827.3-251c15.2-8.8,24.6-25,24.6-42.6v-412.8c0-17.6-9.4-33.8-24.6-42.6
		L469.6-955.4c-7.6-4.4-16.1-6.6-24.6-6.6c-8.5,0-17,2.2-24.6,6.6L62.7-749C47.4-740.2,38-724,38-706.4v412.8
		c0,17.6,9.4,33.8,24.6,42.6L420.4-44.6C428-40.2,436.5-38,445-38 M445,0c-15.3,0-30.4-4-43.6-11.7L43.6-218.1
		C16.7-233.6,0-262.5,0-293.6v-412.8c0-31.1,16.7-60,43.6-75.5l357.7-206.4c13.3-7.6,28.3-11.7,43.6-11.7c15.3,0,30.4,4,43.6,11.7
		l357.7,206.4c26.9,15.5,43.6,44.5,43.6,75.5v412.8c0,31.1-16.7,60-43.6,75.5L488.6-11.7C475.4-4,460.3,0,445,0L445,0z"/>
	<g>
		
			<pattern  id="SVGID_1_" xlink:href="#New_Pattern_Swatch_3" patternTransform="matrix(2.8093 -1.6684 0.9445 1.5904 21911.5801 -8299.0635)">
		</pattern>
		<circle class="st2" cx="584.4" cy="-720.1" r="48.8"/>
		
			<pattern  id="SVGID_2_" xlink:href="#New_Pattern_Swatch_3" patternTransform="matrix(1.3217 -0.7849 3.9696 6.684 35593.1367 40906.0234)">
		</pattern>
		<polygon class="st3" points="479.2,-499.4 441,-522 355.7,-378.4 393.9,-355.8 		"/>
		
			<pattern  id="SVGID_3_" xlink:href="#New_Pattern_Swatch_3" patternTransform="matrix(1.8147 -1.0777 4.1799 7.038 41179.7227 41655.543)">
		</pattern>
		<polygon class="st4" points="589.9,-669.7 537.5,-700.8 447.7,-549.6 500.1,-518.5 		"/>
		
			<pattern  id="SVGID_4_" xlink:href="#New_Pattern_Swatch_3" patternTransform="matrix(2.8093 -1.6684 0.9445 1.5904 21909.5508 -8301.375)">
		</pattern>
		<polygon class="st5" points="519.7,-518.6 438.5,-566.8 418.2,-532.6 499.4,-484.5 		"/>
		<g>
			
				<pattern  id="SVGID_5_" xlink:href="#New_Pattern_Swatch_3" patternTransform="matrix(1.7598 -1.0452 2.6416 4.4478 27895.9824 20356.1191)">
			</pattern>
			<polygon class="st6" points="324.6,-404.8 283.3,-429.3 221.3,-324.9 262.6,-300.4 			"/>
			
				<pattern  id="SVGID_6_" xlink:href="#New_Pattern_Swatch_3" patternTransform="matrix(1.7598 -1.0452 2.6416 4.4478 27906.4102 20349.9258)">
			</pattern>
			<polygon class="st7" points="473.6,-316.3 432.3,-340.8 370.3,-236.4 411.6,-211.9 			"/>
			
				<pattern  id="SVGID_7_" xlink:href="#New_Pattern_Swatch_3" patternTransform="matrix(5.3531 -3.1792 3.177 5.3494 60136.207 11358.79)">
			</pattern>
			<polygon class="st8" points="447.3,-346.2 321.7,-420.7 247.2,-295.2 372.7,-220.7 			"/>
			
				<pattern  id="SVGID_8_" xlink:href="#New_Pattern_Swatch_3" patternTransform="matrix(1.4587 -0.8663 3.9696 6.684 36645.6992 40280.9062)">
			</pattern>
			<path class="st9" d="M292.2-459.5l-5.9-3.5c-7.8-4.6-17.9-2.1-22.6,5.8l-76.3,128.5c-4.6,7.8-2.1,17.9,5.8,22.6l5.9,3.5
				c7.8,4.6,17.9,2.1,22.6-5.8l76.3-128.5C302.6-444.7,300-454.8,292.2-459.5z"/>
			
				<pattern  id="SVGID_9_" xlink:href="#New_Pattern_Swatch_3" patternTransform="matrix(1.4587 -0.8663 3.9696 6.684 36651.5938 40277.4062)">
			</pattern>
			<path class="st10" d="M501.3-335.3l-5.9-3.5c-7.8-4.6-17.9-2.1-22.6,5.8l-76.3,128.5c-4.6,7.8-2.1,17.9,5.8,22.6l5.9,3.5
				c7.8,4.6,17.9,2.1,22.6-5.8l76.3-128.5C511.7-320.5,509.2-330.6,501.3-335.3z"/>
		</g>
	</g>
</symbol>
<symbol  id="Canadarm_1_" viewBox="0 -1000 890 1000">
	<path class="st11" d="M445-981c-12,0-23.8,3.2-34.1,9.1L53.2-765.5C32.1-753.3,19-730.7,19-706.4v412.8c0,24.3,13.1,46.9,34.1,59.1
		L410.9-28.2c10.4,6,22.2,9.1,34.1,9.1c12,0,23.8-3.2,34.1-9.1l357.7-206.4c21.1-12.1,34.1-34.8,34.1-59.1v-412.8
		c0-24.3-13.1-46.9-34.1-59.1L479.1-971.8C468.8-977.8,457-981,445-981z"/>
	<g>
		<polygon class="st12" points="757.2,-807.6 419.4,-596.5 419.4,-596.5 332.7,-736.8 595.4,-900.9 		"/>
		<path class="st12" d="M649.5-290l9.5-40.8c5.2-22.6-8.9-45.2-31.5-50.4l-127.3-29.4L470.9-284c-5.2,22.6,8.9,45.2,31.5,50.4
			l40.9,9.5c15.4,3.6,25,19,21.5,34.4l0,0c-3.6,15.4-19,25-34.4,21.5l-40.4-9.4c-26.6-6.1-49.7-22.4-64.4-45.3l0,0
			c-15.1-23.5-20.1-52-14-79.3l15.6-69.4l140.8-87.5l67.9,16.2c13.8,3.3,27.1,8.9,38.5,17.3c35.1,25.8,49.6,68.5,40.4,108.1
			l-9.4,40.4c-3.6,15.4-19,25-34.4,21.5l0,0C655.5-259.2,645.9-274.6,649.5-290z"/>
		<polygon class="st12" points="427.7,-372.5 253.1,-651.5 253.1,-651.5 393.5,-738.1 568.3,-458.9 		"/>
		<path class="st12" d="M461-625.5c14.3-61.8-24.2-123.5-86-137.8s-123.6,24.2-137.9,86s24.2,123.5,86,137.8S446.6-563.7,461-625.5z
			"/>
		<path class="st12" d="M403.4-638.8c7-30-11.8-60-41.8-67c-30.1-7-60.1,11.8-67,41.8s11.8,60,41.8,67
			C366.5-590.1,396.5-608.8,403.4-638.8z"/>
		<path class="st12" d="M376.4-340.5L376.4-340.5c-12.2-19.4-6.3-45.1,13.2-57.1l173.9-107.8c19.4-12,44.8-6.1,57,13.1l0,0
			c12.3,19.5,6.3,45.2-13.3,57.3l-174,107.6C413.8-315.5,388.5-321.3,376.4-340.5z"/>
	</g>
	<path class="st13" d="M445-38c8.5,0,17-2.2,24.6-6.6L827.3-251c15.2-8.8,24.6-25,24.6-42.6v-412.8c0-17.6-9.4-33.8-24.6-42.6
		L469.6-955.4c-7.6-4.4-16.1-6.6-24.6-6.6c-8.5,0-17,2.2-24.6,6.6L62.7-749C47.4-740.2,38-724,38-706.4v412.8
		c0,17.6,9.4,33.8,24.6,42.6L420.4-44.6C428-40.2,436.5-38,445-38 M445,0c-15.3,0-30.4-4-43.6-11.7L43.6-218.1
		C16.7-233.6,0-262.5,0-293.6v-412.8c0-31.1,16.7-60,43.6-75.5l357.7-206.4c13.3-7.6,28.3-11.7,43.6-11.7c15.3,0,30.4,4,43.6,11.7
		l357.7,206.4c26.9,15.5,43.6,44.5,43.6,75.5v412.8c0,31.1-16.7,60-43.6,75.5L488.6-11.7C475.4-4,460.3,0,445,0L445,0z"/>
</symbol>
<symbol  id="GC_Stats_1_" viewBox="0 -1000 890 1000">
	<path class="st14" d="M445-981c-12,0-23.8,3.2-34.1,9.1L53.2-765.5C32.1-753.3,19-730.7,19-706.4v412.8c0,24.3,13.1,46.9,34.1,59.1
		L410.9-28.2c10.4,6,22.2,9.1,34.1,9.1c12,0,23.8-3.2,34.1-9.1l357.7-206.4c21.1-12.1,34.1-34.8,34.1-59.1v-412.8
		c0-24.3-13.1-46.9-34.1-59.1L479.1-971.8C468.8-977.8,457-981,445-981z"/>
	<path class="st15" d="M445-38c8.5,0,17-2.2,24.6-6.6L827.3-251c15.2-8.8,24.6-25,24.6-42.6v-412.8c0-17.6-9.4-33.8-24.6-42.6
		L469.6-955.4c-7.6-4.4-16.1-6.6-24.6-6.6c-8.5,0-17,2.2-24.6,6.6L62.7-749C47.4-740.2,38-724,38-706.4v412.8
		c0,17.6,9.4,33.8,24.6,42.6L420.4-44.6C428-40.2,436.5-38,445-38 M445,0c-15.3,0-30.4-4-43.6-11.7L43.6-218.1
		C16.7-233.6,0-262.5,0-293.6v-412.8c0-31.1,16.7-60,43.6-75.5l357.7-206.4c13.3-7.6,28.3-11.7,43.6-11.7c15.3,0,30.4,4,43.6,11.7
		l357.7,206.4c26.9,15.5,43.6,44.5,43.6,75.5v412.8c0,31.1-16.7,60-43.6,75.5L488.6-11.7C475.4-4,460.3,0,445,0L445,0z"/>
	<path class="st16" d="M520-387l14.5-90.6L441-706.3l206.9,228.7L588.1-387H293.8L234-477.6L441-706.3l-93.6,228.7l14.5,90.6H520
		l14.5-90.6L441-706.3l-93.6,228.7l14.5,90.6C414.3-387,467.6-387,520-387z"/>
	<line class="st16" x1="647.9" y1="-477.6" x2="234" y2="-477.6"/>
	<g>
		<g>
			<g>
				<path class="st17" d="M438.3-796.9c0.3,0,0.6,0,0.9,0c164.3,0,297.5,133.1,297.5,297.3c0,83.3-34.3,158.6-89.6,212.6"/>
				<g>
					<polygon class="st15" points="598.9,-351.7 710.6,-237.3 597.6,-238.7 					"/>
				</g>
			</g>
		</g>
		<g>
			<g>
				<path class="st17" d="M438.3-202.3c-163.9-0.5-296.6-133.4-296.6-297.3c0-80.9,32.3-154.2,84.8-207.8"/>
				<g>
					<polygon class="st15" points="276,-643.9 161.7,-755.7 274.8,-756.9 					"/>
				</g>
			</g>
		</g>
	</g>
</symbol>
<symbol  id="Scrimp_1_" viewBox="0 -1000 890 1000">
	<path class="st18" d="M445-981c-12,0-23.8,3.2-34.1,9.1L53.2-765.5C32.1-753.3,19-730.7,19-706.4v412.8c0,24.3,13.1,46.9,34.1,59.1
		L410.9-28.2c10.4,6,22.2,9.1,34.1,9.1c12,0,23.8-3.2,34.1-9.1l357.7-206.4c21.1-12.1,34.1-34.8,34.1-59.1v-412.8
		c0-24.3-13.1-46.9-34.1-59.1L479.1-971.8C468.8-977.8,457-981,445-981z"/>
	<path class="st19" d="M445-38c8.5,0,17-2.2,24.6-6.6L827.3-251c15.2-8.8,24.6-25,24.6-42.6v-412.8c0-17.6-9.4-33.8-24.6-42.6
		L469.6-955.4c-7.6-4.4-16.1-6.6-24.6-6.6c-8.5,0-17,2.2-24.6,6.6L62.7-749C47.4-740.2,38-724,38-706.4v412.8
		c0,17.6,9.4,33.8,24.6,42.6L420.4-44.6C428-40.2,436.5-38,445-38 M445,0c-15.3,0-30.4-4-43.6-11.7L43.6-218.1
		C16.7-233.6,0-262.5,0-293.6v-412.8c0-31.1,16.7-60,43.6-75.5l357.7-206.4c13.3-7.6,28.3-11.7,43.6-11.7c15.3,0,30.4,4,43.6,11.7
		l357.7,206.4c26.9,15.5,43.6,44.5,43.6,75.5v412.8c0,31.1-16.7,60-43.6,75.5L488.6-11.7C475.4-4,460.3,0,445,0L445,0z"/>
	<polygon class="st20" points="126.3,-537.4 594.9,-232.8 569.8,-790.3 406,-699.5 315.9,-725.4 294,-637.7 	"/>
	<path class="st19" d="M601.6-224.5c-1.6,0.9-3.4,1.4-5.2,1.4c-2,0-4-0.6-5.7-1.7L119.3-530c-3-2-4.8-5.4-4.8-9
		c0.1-3.6,2.1-7,5.2-8.8l162.6-93.6l20.9-85.8c0.7-2.8,2.5-5.2,4.9-6.6c1.6-0.9,3.4-1.4,5.2-1.4c0.9,0,1.8,0.1,3,0.4l84.8,25
		l162.5-93.5c1.6-0.9,3.4-1.4,5.2-1.4c0.9,0,1.8,0.1,2.7,0.4c0.8,0.2,1.6,0.5,2.3,0.9c3.2,1.7,5.2,5,5.4,8.6l27.2,552.6l0.4,8.1
		C607-230.1,605-226.4,601.6-224.5z M144.9-538.3L554.6-273L288.6-621L144.9-538.3z M394.7-689.9l-73.8-21.8L302.7-637l248.9,325.8
		L394.7-689.9z M559.2-776.7L415.5-694l167.7,404.5L559.2-776.7z"/>
</symbol>
<symbol  id="Terra_1_" viewBox="0 -1000 890 1000">
	<path class="st0" d="M445-981c-12,0-23.8,3.2-34.1,9.1L53.2-765.5C32.1-753.3,19-730.7,19-706.4v412.8c0,24.3,13.1,46.9,34.1,59.1
		L410.9-28.2c10.4,6,22.2,9.1,34.1,9.1c12,0,23.8-3.2,34.1-9.1l357.7-206.4c21.1-12.1,34.1-34.8,34.1-59.1v-412.8
		c0-24.3-13.1-46.9-34.1-59.1L479.1-971.8C468.8-977.8,457-981,445-981z"/>
	<path class="st1" d="M445-38c8.5,0,17-2.2,24.6-6.6L827.3-251c15.2-8.8,24.6-25,24.6-42.6v-412.8c0-17.6-9.4-33.8-24.6-42.6
		L469.6-955.4c-7.6-4.4-16.1-6.6-24.6-6.6c-8.5,0-17,2.2-24.6,6.6L62.7-749C47.4-740.2,38-724,38-706.4v412.8
		c0,17.6,9.4,33.8,24.6,42.6L420.4-44.6C428-40.2,436.5-38,445-38 M445,0c-15.3,0-30.4-4-43.6-11.7L43.6-218.1
		C16.7-233.6,0-262.5,0-293.6v-412.8c0-31.1,16.7-60,43.6-75.5l357.7-206.4c13.3-7.6,28.3-11.7,43.6-11.7c15.3,0,30.4,4,43.6,11.7
		l357.7,206.4c26.9,15.5,43.6,44.5,43.6,75.5v412.8c0,31.1-16.7,60-43.6,75.5L488.6-11.7C475.4-4,460.3,0,445,0L445,0z"/>
	<pattern  id="SVGID_10_" xlink:href="#New_Pattern_Swatch_3" patternTransform="matrix(6.2683 0 0 6.264 40681.1172 43422.9805)">
	</pattern>
	<ellipse class="st21" cx="664.4" cy="-319.3" rx="59.5" ry="59.5"/>
	<ellipse class="st22" cx="442.7" cy="-510.1" rx="192" ry="191.9"/>
	<g>
		<path class="st20" d="M172.6-310.3c-7.4-8.5-16.4-13.9-25.9-16.2c9.5-2.4,18.6-7.7,26-16.2c7.4-8.5,12.1-18.8,14.2-29.8
			c2.1,10.9,6.8,21.3,14.1,29.7c7.4,8.5,16.5,13.9,26,16.2l0,0c-9.5,2.4-18.6,7.7-26,16.2s-12.1,18.9-14.2,29.8l0,0
			C184.7-291.4,180-301.8,172.6-310.3z"/>
		<pattern  id="SVGID_11_" xlink:href="#New_Pattern_Swatch_3" patternTransform="matrix(6.2683 0 0 6.264 40681.1172 43422.9805)">
		</pattern>
		<path class="st23" d="M186.8-303.9c2.3-4.2,5-8.1,8.1-11.6c3.7-4.3,7.9-8,12.5-11c-4.6-3-8.8-6.7-12.5-11
			c-3.1-3.5-5.8-7.4-8.1-11.6c-2.3,4.2-5,8.1-8.1,11.6c-3.7,4.3-7.9,8-12.5,11c4.5,3,8.7,6.7,12.4,10.9
			C181.7-312,184.5-308.1,186.8-303.9 M186.8-280.5c-2-10.9-6.8-21.3-14.2-29.8c-7.4-8.5-16.4-13.9-25.9-16.2
			c9.5-2.4,18.6-7.7,26-16.2c7.4-8.5,12.1-18.8,14.2-29.8c2.1,10.9,6.8,21.3,14.1,29.7c7.4,8.5,16.5,13.9,26,16.2l0,0
			c-9.5,2.4-18.6,7.7-26,16.2S188.9-291.4,186.8-280.5L186.8-280.5L186.8-280.5z"/>
	</g>
	<g>
		<path class="st20" d="M684.5-681.1c-7.4-8.5-16.4-13.9-25.9-16.2c9.5-2.4,18.6-7.7,26-16.2s12.1-18.8,14.2-29.8
			c2.1,10.9,6.8,21.3,14.1,29.7c7.4,8.5,16.5,13.9,26,16.2l0,0c-9.5,2.4-18.6,7.7-26,16.2c-7.4,8.5-12.1,18.9-14.2,29.8l0,0
			C696.6-662.2,691.9-672.6,684.5-681.1z"/>
		<pattern  id="SVGID_12_" xlink:href="#New_Pattern_Swatch_3" patternTransform="matrix(6.2683 0 0 6.264 40681.1172 43422.9805)">
		</pattern>
		<path class="st24" d="M698.6-674.7c2.3-4.2,5-8.1,8.1-11.6c3.7-4.3,7.9-8,12.5-11c-4.6-3-8.8-6.7-12.5-11
			c-3.1-3.5-5.8-7.4-8.1-11.6c-2.3,4.2-5,8.1-8.1,11.6c-3.7,4.3-7.9,8-12.5,11c4.5,3,8.7,6.7,12.4,10.9
			C693.6-682.8,696.3-678.8,698.6-674.7 M698.6-651.2c-2-10.9-6.8-21.3-14.2-29.8c-7.4-8.5-16.4-13.9-25.9-16.2
			c9.5-2.4,18.6-7.7,26-16.2c7.4-8.5,12.1-18.8,14.2-29.8c2.1,10.9,6.8,21.3,14.1,29.7c7.4,8.5,16.5,13.9,26,16.2l0,0
			c-9.5,2.4-18.6,7.7-26,16.2S700.7-662.2,698.6-651.2L698.6-651.2L698.6-651.2z"/>
	</g>
	<path class="st25" d="M278.2-609.1c-7.4-10.7-14.3-21-20.4-31.1c-35.5-58.2-33.5-81.2-30-84.7c1.1-1.1,3.9-1.7,7.6-1.7
		c9.4,0,38,4.5,99.8,46.3c2.8,1.9,5.6,3.8,8.5,5.8C316.9-658.4,294.4-635.9,278.2-609.1z"/>
	<path class="st25" d="M657.7-295.3c-1.1,1.1-3.9,1.7-7.6,1.7c-9.4,0-38-4.5-99.8-46.3c-2.8-1.9-5.6-3.8-8.5-5.8
		c26.8-16.2,49.3-38.6,65.4-65.4c7.4,10.7,14.3,21,20.4,31.1C663.2-321.9,661.2-298.8,657.7-295.3z"/>
	<pattern  id="SVGID_13_" xlink:href="#New_Pattern_Swatch_3" patternTransform="matrix(6.2683 0 0 6.264 40681.1172 43422.9805)">
	</pattern>
	<path class="st26" d="M616.1-427.4c-2.7,5.6-5.6,11-8.8,16.3c-16.2,26.8-38.7,49.3-65.4,65.4c-5.3,3.2-10.7,6.1-16.3,8.8
		c-25.1,12-53.1,18.7-82.8,18.7c-106.1,0-192-85.9-192-191.9c0-29.6,6.7-57.7,18.7-82.7c2.7-5.6,5.6-11,8.8-16.3
		c16.2-26.8,38.7-49.3,65.4-65.4c5.3-3.2,10.7-6.1,16.3-8.8c25.1-12,53.1-18.7,82.8-18.7c106.1,0,192,85.9,192,191.9
		C634.8-480.5,628-452.4,616.1-427.4z"/>
	<pattern  id="SVGID_14_" xlink:href="#New_Pattern_Swatch_3" patternTransform="matrix(6.2683 0 0 6.264 40686.6875 43423.0508)">
	</pattern>
	<path class="st27" d="M654.6-326c-4.5-13-12.7-30.7-26.9-54c-6.1-10-12.9-20.4-20.4-31.1c-31.2-44.6-73.3-94-121.4-142.1
		c-47.4-47.4-97.5-90.1-142.2-121.3c-2.8-2-5.7-3.9-8.5-5.8c-61.8-41.8-90.4-46.3-99.8-46.3c-3.6,0-6.5,0.6-7.6,1.7
		c-3.5,3.5-5.5,26.6,30,84.7c6.1,10,12.9,20.4,20.4,31.1c-3.2,5.3-6.1,10.7-8.8,16.3c-49.7-69.4-72.2-125-53.4-143.8
		c4.5-4.5,11-6.6,19.3-6.6c26.7,0,71.7,22.1,124.6,59.9c42.5,30.4,90.1,70.9,137.6,118.4c47.5,47.5,88.1,95.1,118.5,137.5
		c26.7,37.3,45.6,70.7,54.4,96.4C666-326.6,660.4-325.1,654.6-326z"/>
</symbol>
<pattern  y="1099" width="6.1" height="6.1" patternUnits="userSpaceOnUse" id="New_Pattern_Swatch_3" viewBox="0 -6.1 6.1 6.1" style="overflow:visible;">
	<g>
		<rect y="-6.1" class="st25" width="6.1" height="6.1"/>
		<rect y="-6.1" class="st1" width="6.1" height="6.1"/>
	</g>
</pattern>
<g id="Knife_Tar" class="st28">
</g>
<g id="JWALA" class="st28">
</g>
<g id="Complete">
	<g id="Terra">
		
			<use xlink:href="#Terra_1_"  width="890" height="1000" y="-1000" transform="matrix(9.800000e-02 0 0 -9.800000e-02 6.39 1)" style="overflow:visible;"/>
	</g>
	<g id="Scrimp" class="st28">
		
			<use xlink:href="#Scrimp_1_"  width="890" height="1000" y="-1000" transform="matrix(9.800000e-02 0 0 -9.800000e-02 6.39 1)" style="display:inline;overflow:visible;"/>
	</g>
	<g id="GC_Stats" class="st28">
		
			<use xlink:href="#GC_Stats_1_"  width="890" height="1000" y="-1000" transform="matrix(9.800000e-02 0 0 -9.800000e-02 6.39 1)" style="display:inline;overflow:visible;"/>
	</g>
	<g id="Canadarm" class="st28">
		
			<use xlink:href="#Canadarm_1_"  width="890" height="1000" y="-1000" transform="matrix(9.800000e-02 0 0 -9.800000e-02 6.39 1)" style="display:inline;overflow:visible;"/>
	</g>
	<g id="Beadledom" class="st28">
		
			<use xlink:href="#Beadledom_1_"  width="890" height="1000" y="-1000" transform="matrix(9.800000e-02 0 0 -9.800000e-02 6.39 1)" style="display:inline;overflow:visible;"/>
	</g>
</g>
<g id="_x5F_COPY_ME" class="st28">
	
		<use xlink:href="#Terra_1_"  width="890" height="1000" y="-1000" transform="matrix(9.800000e-02 0 0 -9.800000e-02 6.39 1)" style="display:inline;overflow:visible;"/>
</g>
<g id="Template" class="st28">
	<g id="Red" class="st29">
	</g>
	<g id="Blue" class="st29">
	</g>
	<g id="Purple" class="st29">
	</g>
</g>
<g id="Instructions">
</g>
</svg>
