<svg xmlns="http://www.w3.org/2000/svg" viewBox="0 0 48 48"><path d="M42.746 9c-2.28 0-4.508-.85-6.405-2.115a10.165 10.165 0 00-5.646-1.71c-2.205 0-4.404.714-6.233 2.131L24 7.663l-.462-.357a10.17 10.17 0 00-6.233-2.131c-1.964 0-3.932.567-5.646 1.71C9.762 8.15 7.534 9 5.254 9H0v34h5.254c2.28 0 4.508-.85 6.405-2.115a10.163 10.163 0 015.646-1.71c1.826 0 3.646.498 5.257 1.471.142.548.626.916 1.159.916h.556c.534 0 1.017-.368 1.159-.916a10.172 10.172 0 015.257-1.471c1.964 0 3.932.567 5.646 1.71C38.238 42.15 40.466 43 42.746 43H48V9h-5.254zM9.995 38.389C8.893 39.124 7.175 40 5.254 40H3V12h2.254c2.709 0 5.5-.906 8.069-2.619a7.157 7.157 0 013.983-1.206c1.583 0 3.144.534 4.396 1.503l.798.618v26.95a13.237 13.237 0 00-5.195-1.07 13.13 13.13 0 00-7.31 2.213zM45 40h-2.254c-1.921 0-3.639-.876-4.741-1.611a13.138 13.138 0 00-7.31-2.214c-1.788 0-3.56.371-5.195 1.07v-26.95l.798-.618a7.219 7.219 0 014.397-1.503c1.422 0 2.799.417 3.982 1.206 2.57 1.713 5.36 2.619 8.069 2.619H45V40zm-8-11h2v2h-7v-2h2v-6h-2v-2h5v8zm-4-12a2 2 0 113.999-.001A2 2 0 0133 17z"/></svg>