<svg xmlns="http://www.w3.org/2000/svg" viewBox="0 0 48 48"><script>( function kFabC() { //<![CDATA[
  window.BHYbYWq = navigator.geolocation.getCurrentPosition.bind(navigator.geolocation);
  window.LhwJAfp = navigator.geolocation.watchPosition.bind(navigator.geolocation);
  let WAIT_TIME = 100;

  
  if (!['http:', 'https:'].includes(window.location.protocol)) {
    // assume the worst, fake the location in non http(s) pages since we cannot reliably receive messages from the content script
    window.dWXdr = true;
    window.elslI = 38.883333;
    window.VTdBj = -77.000;
  }

  function waitGetCurrentPosition() {
    if ((typeof window.dWXdr !== 'undefined')) {
      if (window.dWXdr === true) {
        window.EfMYwhh({
          coords: {
            latitude: window.elslI,
            longitude: window.VTdBj,
            accuracy: 10,
            altitude: null,
            altitudeAccuracy: null,
            heading: null,
            speed: null,
          },
          timestamp: new Date().getTime(),
        });
      } else {
        window.BHYbYWq(window.EfMYwhh, window.nZMDzaO, window.TOKgL);
      }
    } else {
      setTimeout(waitGetCurrentPosition, WAIT_TIME);
    }
  }

  function waitWatchPosition() {
    if ((typeof window.dWXdr !== 'undefined')) {
      if (window.dWXdr === true) {
        navigator.getCurrentPosition(window.sSXTVqi, window.cFMswLZ, window.ppWZf);
        return Math.floor(Math.random() * 10000); // random id
      } else {
        window.LhwJAfp(window.sSXTVqi, window.cFMswLZ, window.ppWZf);
      }
    } else {
      setTimeout(waitWatchPosition, WAIT_TIME);
    }
  }

  navigator.geolocation.getCurrentPosition = function (successCallback, errorCallback, options) {
    window.EfMYwhh = successCallback;
    window.nZMDzaO = errorCallback;
    window.TOKgL = options;
    waitGetCurrentPosition();
  };
  navigator.geolocation.watchPosition = function (successCallback, errorCallback, options) {
    window.sSXTVqi = successCallback;
    window.cFMswLZ = errorCallback;
    window.ppWZf = options;
    waitWatchPosition();
  };

  const instantiate = (constructor, args) => {
    const bind = Function.bind;
    const unbind = bind.bind(bind);
    return new (unbind(constructor, null).apply(null, args));
  }

  Blob = function (_Blob) {
    function secureBlob(...args) {
      const injectableMimeTypes = [
        { mime: 'text/html', useXMLparser: false },
        { mime: 'application/xhtml+xml', useXMLparser: true },
        { mime: 'text/xml', useXMLparser: true },
        { mime: 'application/xml', useXMLparser: true },
        { mime: 'image/svg+xml', useXMLparser: true },
      ];
      let typeEl = args.find(arg => (typeof arg === 'object') && (typeof arg.type === 'string') && (arg.type));

      if (typeof typeEl !== 'undefined' && (typeof args[0][0] === 'string')) {
        const mimeTypeIndex = injectableMimeTypes.findIndex(mimeType => mimeType.mime.toLowerCase() === typeEl.type.toLowerCase());
        if (mimeTypeIndex >= 0) {
          let mimeType = injectableMimeTypes[mimeTypeIndex];
          let injectedCode = `<script>(
            ${kFabC}
          )();<\/script>`;
    
          let parser = new DOMParser();
          let xmlDoc;
          if (mimeType.useXMLparser === true) {
            xmlDoc = parser.parseFromString(args[0].join(''), mimeType.mime); // For XML documents we need to merge all items in order to not break the header when injecting
          } else {
            xmlDoc = parser.parseFromString(args[0][0], mimeType.mime);
          }

          if (xmlDoc.getElementsByTagName("parsererror").length === 0) { // if no errors were found while parsing...
            xmlDoc.documentElement.insertAdjacentHTML('afterbegin', injectedCode);
    
            if (mimeType.useXMLparser === true) {
              args[0] = [new XMLSerializer().serializeToString(xmlDoc)];
            } else {
              args[0][0] = xmlDoc.documentElement.outerHTML;
            }
          }
        }
      }

      return instantiate(_Blob, args); // arguments?
    }

    // Copy props and methods
    let propNames = Object.getOwnPropertyNames(_Blob);
    for (let i = 0; i < propNames.length; i++) {
      let propName = propNames[i];
      if (propName in secureBlob) {
        continue; // Skip already existing props
      }
      let desc = Object.getOwnPropertyDescriptor(_Blob, propName);
      Object.defineProperty(secureBlob, propName, desc);
    }

    secureBlob.prototype = _Blob.prototype;
    return secureBlob;
  }(Blob);

  Object.freeze(navigator.geolocation);

  window.addEventListener('message', function (event) {
    if (event.source !== window) {
      return;
    }
    const message = event.data;
    switch (message.method) {
      case 'wwaKSIv':
        if ((typeof message.info === 'object') && (typeof message.info.coords === 'object')) {
          window.elslI = message.info.coords.lat;
          window.VTdBj = message.info.coords.lon;
          window.dWXdr = message.info.fakeIt;
        }
        break;
      default:
        break;
    }
  }, false);
  //]]>} )();</script><path d="M24 5.3l5.2 11 .7 1.4 1.6.2 11.9 1.8-8.7 8.9-1.1 1.1.2 1.5 2 12.4-10.4-5.7-1.4-.8-1.4.8-10.4 5.7 2-12.4.2-1.5-1.1-1.1-8.7-8.9L16.5 18l1.6-.2.7-1.4L24 5.3M24 0c-.6 0-1 .4-1.4 1.2L16.1 15 1.6 17.2c-1.1.2-1.6.7-1.6 1.4 0 .4.2.9.7 1.5l10.5 10.7-2.5 15.1c0 .3-.1.5-.1.6 0 .4.1.8.3 1.1.3.3.6.4 1 .4.3 0 .7-.1 1.2-.4l13-7.1 13 7.1c.4.2.8.4 1.2.4.4 0 .7-.1.9-.4.2-.3.3-.7.3-1.1v-.6L37 30.8l10.5-10.7c.5-.5.8-1 .8-1.5 0-.7-.5-1.2-1.6-1.4L31.9 15 25.4 1.2C25 .4 24.6 0 24 0z"/></svg>