<svg xmlns="http://www.w3.org/2000/svg" data-name="Layer 3" viewBox="0 0 48 48"><path d="M47.927 7a3.726 3.726 0 0 0-3.653-3H3.726A3.726 3.726 0 0 0 .073 7H0v33.274A3.726 3.726 0 0 0 3.726 44h40.548A3.726 3.726 0 0 0 48 40.274V7zM45 40.274a.727.727 0 0 1-.726.726H3.726A.727.727 0 0 1 3 40.274V29h6.356a1 1 0 0 0 .9-.569l.871-1.826 2.392 6.73a1 1 0 0 0 1.92-.123l2.1-9.671 2.451 12.341a1 1 0 0 0 .971.806h.01a1 1 0 0 0 .976-.788l2.293-10.512 1.119 2.965A1 1 0 0 0 26.3 29h5.3a1 1 0 0 0 .966-.744l.618-2.33 2.116 8.008a1 1 0 0 0 .913.744.989.989 0 0 0 .988-.643L39.117 29H45zM45 27h-6.571a1 1 0 0 0-.935.644l-1.058 2.774-2.284-8.658a1 1 0 0 0-.965-.745 1 1 0 0 0-.967.743L30.829 27h-3.841l-2.068-5.478a1.012 1.012 0 0 0-1.009-.645 1 1 0 0 0-.9.785l-1.989 9.122-2.458-12.354a1 1 0 0 0-.971-.8h-.009a1 1 0 0 0-.978.788l-2.375 10.94-2.023-5.693a1 1 0 0 0-1.845-.1L8.726 27H3V15h42z"/></svg>