<svg xmlns="http://www.w3.org/2000/svg" viewBox="0 0 48 48"><path d="M48 22.7L37.4 12.1c-1.3-1.3-3.6-1.3-4.9 0l-3.8 3.8 2.1 2.1 3.8-3.8c.1-.1.3-.1.4-.1s.2 0 .4.1L43 22c-1.2-.6-2.8-1-4.8-1-6.7 0-9.7 1.4-10.9 3.8-1-.4-2.2-.7-3.3-.7s-2.3.2-3.3.7C19.5 22.4 16.5 21 9.8 21c-2 0-3.6.3-4.8 1l7.7-7.7c.2-.2.5-.2.7 0l3.8 3.8 2.1-2.1-3.8-3.8c-1.4-1.4-3.6-1.4-4.9 0L0 22.7V26l1.7 1.7v.8c0 4.8 4.8 8.3 9.8 8.3 5 0 9.8-3.5 9.8-8.3v-.8c.8-.4 1.7-.6 2.7-.6s1.9.2 2.7.6v.8c0 4.8 4.8 8.3 9.8 8.3 5 0 9.8-3.5 9.8-8.3v-.8L48 26v-3.3zM11.5 34.2c-3.4 0-7.1-2.3-7.1-5.6 0-3.2.9-4.9 5.4-4.9 8.8 0 8.8 2.3 8.8 4.9 0 3.3-3.7 5.6-7.1 5.6zm25 0c-3.4 0-7.1-2.3-7.1-5.6 0-2.6 0-4.9 8.8-4.9 3.5 0 5.4.8 5.4 4.9 0 3.3-3.8 5.6-7.1 5.6z"/></svg>